HIERARCHY
ROOT joint_0
{
	OFFSET 0.000000 0.000000 0.000000
	CHANNELS 6 Xposition Yposition Zposition Zrotation Yrotation Xrotation 
	JOINT joint_1
	{
		OFFSET 1.363060 -1.794630 0.839290
		CHANNELS 3 Zrotation Yrotation Xrotation
		JOINT joint_2
		{
			OFFSET 2.448110 -6.726130 0.000000
			CHANNELS 3 Zrotation Yrotation Xrotation
			JOINT joint_3
			{
				OFFSET 2.562200 -7.039590 0.000000
				CHANNELS 3 Zrotation Yrotation Xrotation
				JOINT joint_4
				{
					OFFSET 0.157640 -0.433110 2.322550
					CHANNELS 3 Zrotation Yrotation Xrotation
					End Site
					{
						OFFSET 0.000000 0.000000 0.000000
					}
				}
			}
		}
	}
	JOINT joint_5
	{
		OFFSET -1.305520 -1.794630 0.839290
		CHANNELS 3 Zrotation Yrotation Xrotation
		JOINT joint_6
		{
			OFFSET -2.542530 -6.985550 0.000000
			CHANNELS 3 Zrotation Yrotation Xrotation
			JOINT joint_7
			{
				OFFSET -2.568260 -7.056230 0.000000
				CHANNELS 3 Zrotation Yrotation Xrotation
				JOINT joint_8
				{
					OFFSET -0.164730 -0.452590 2.363150
					CHANNELS 3 Zrotation Yrotation Xrotation
					End Site
					{
						OFFSET 0.000000 0.000000 0.000000
					}
				}
			}
		}
	}
	JOINT joint_9
	{
		OFFSET 0.028270 2.035590 -0.193380
		CHANNELS 3 Zrotation Yrotation Xrotation
		JOINT joint_10
		{
			OFFSET 0.056720 2.048850 -0.042750
			CHANNELS 3 Zrotation Yrotation Xrotation
			JOINT joint_11
			{
				OFFSET -0.054170 1.746240 0.172020
				CHANNELS 3 Zrotation Yrotation Xrotation
				JOINT joint_12
				{
					OFFSET 0.104070 1.761360 -0.123970
					CHANNELS 3 Zrotation Yrotation Xrotation
					End Site
					{
						OFFSET 0.000000 0.000000 0.000000
					}
				}
			}
			JOINT joint_13
			{
				OFFSET 3.362410 1.200890 -0.311210
				CHANNELS 3 Zrotation Yrotation Xrotation
				JOINT joint_14
				{
					OFFSET 4.983000 -0.000000 -0.000000
					CHANNELS 3 Zrotation Yrotation Xrotation
					JOINT joint_15
					{
						OFFSET 3.483560 -0.000000 -0.000000
						CHANNELS 3 Zrotation Yrotation Xrotation
						JOINT joint_16
						{
							OFFSET 0.000000 0.000000 0.000000
							CHANNELS 3 Zrotation Yrotation Xrotation
							End Site
							{
								OFFSET 0.000000 0.000000 0.000000
							}
						}
					}
				}
			}
			JOINT joint_17
			{
				OFFSET -3.136600 1.374050 -0.404650
				CHANNELS 3 Zrotation Yrotation Xrotation
				JOINT joint_18
				{
					OFFSET -5.241900 -0.000000 -0.000000
					CHANNELS 3 Zrotation Yrotation Xrotation
					JOINT joint_19
					{
						OFFSET -3.444170 -0.000000 -0.000000
						CHANNELS 3 Zrotation Yrotation Xrotation
						JOINT joint_20
						{
							OFFSET 0.000000 0.000000 0.000000
							CHANNELS 3 Zrotation Yrotation Xrotation
							End Site
							{
								OFFSET 0.000000 0.000000 0.000000
							}
						}
					}
				}
			}
		}
	}
}
MOTION
Frames: 17
Frame Time: 0.031667
0.383414 16.863363 -1.810240 -1.405944 0.763194 0.967095 -6.557510 -24.248838 2.718462 11.410852 3.366376 -1.290262 31.411800 21.464789 -45.534100 -31.448508 23.160495 -2.067343 -3.608252 -7.702856 -14.087721 18.843153 -18.923291 -0.690245 -6.193938 -8.490903 21.236784 -39.463368 14.076043 12.713875 -10.789384 28.394958 -33.165102 -39.877296 21.342422 20.170525 -29.977229 -40.644366 -0.495130 -11.005108 -12.212964 -33.039301 -49.609031 9.450758 2.601323 11.904654 -16.481946 3.199199 -1.802226 15.232171 13.838588 -11.138195 -8.967138 44.757130 46.308323 -11.431054 30.901131 12.021626 -26.852806 -9.514420 31.202692 24.597919 -6.893061 -37.909063 1.969737 6.712363 
0.383318 16.859610 -1.817252 -1.379972 0.747692 0.969901 -36.612240 -36.757084 17.791090 6.711517 3.744324 -22.719785 -32.176565 -19.109211 -18.752389 33.489667 10.383448 6.575728 -12.404133 20.901390 45.534889 0.127941 -30.387169 -19.788621 -43.535699 9.130840 0.070842 35.973651 18.510863 15.202838 38.987451 0.150400 16.430893 -19.723425 13.548189 18.058949 -6.427540 16.416983 -19.509917 -23.041783 28.578458 -25.609166 4.407116 39.788579 27.570092 23.557448 -10.255100 -36.971670 -29.720917 -37.490733 -26.933367 -15.693093 11.120388 -1.781044 51.884995 17.123745 17.112059 -24.914424 7.350077 -62.258687 7.833151 -25.448227 -39.761039 32.511289 33.609616 -36.456062 
0.359751 16.856756 -1.922252 -1.278687 2.231196 1.264987 17.547674 -22.310837 35.362337 6.474250 -4.659673 -1.551637 -33.674233 34.865010 -23.847306 41.676785 -35.376847 -4.525046 19.843000 31.701349 0.443509 -16.403865 -32.479281 44.452409 24.379881 34.207702 12.774326 6.285670 15.230973 -33.764208 -7.130720 -30.275912 -25.389442 -13.437786 -22.811199 20.001428 -4.777927 4.069930 -20.288087 28.175488 -12.952949 35.030127 12.118416 -34.945369 -38.626564 2.047007 24.452373 -51.013225 38.079113 -32.817288 -27.497474 39.735930 25.367889 3.272421 -14.201974 -39.241925 0.284438 16.103667 10.129929 -10.519222 16.420660 10.638422 1.661679 -36.816845 -16.669983 39.839638 
0.356616 16.846096 -1.948889 -0.875224 1.924792 0.723241 -34.944907 48.214525 -8.570022 -10.886086 -23.861505 42.596683 -3.180187 -38.166286 -42.468938 -42.524044 42.422421 3.824585 61.435890 6.453267 2.837375 6.954588 11.895477 -17.589244 -1.865157 0.325123 -19.633680 39.299530 -14.399147 19.898290 42.383704 -27.260523 -15.996816 -32.425152 18.758605 -15.034120 -6.527181 -32.741576 -12.432552 16.984272 4.350873 18.230005 13.688075 -6.510864 -23.734486 19.591869 -27.138809 -51.977311 11.390275 3.203437 15.793134 31.782340 -18.230650 -35.508721 -8.452890 -24.352758 -32.209268 -20.190709 37.757230 -83.586228 -3.426565 15.576860 -38.384020 -32.530200 -44.172562 -43.377080 
0.352688 16.855104 -1.909324 -1.206381 1.764283 0.913657 18.945901 20.579035 -20.143169 24.422641 -39.454965 34.379582 6.836696 18.931261 28.821737 -1.834731 15.510393 32.676351 41.198232 -11.301659 -14.173387 -36.359171 -39.939792 4.592629 -11.876825 -34.983644 -17.025266 -32.872678 -38.921622 -21.943596 -25.985815 -41.962696 -11.954253 10.271400 22.409465 16.197253 16.391356 -12.691451 12.821300 -18.567025 -16.079858 -28.158020 28.465908 -25.054190 11.323672 -8.631221 32.417311 -41.765829 49.087767 -24.343745 39.000097 15.949055 20.765887 -11.590159 -5.967183 33.362465 -14.880524 -1.842687 -35.174735 -76.945013 -44.175817 2.201618 -11.260562 -3.084395 -43.589689 -38.627945 
0.353326 16.855556 -1.907733 -1.240121 1.724975 0.923689 23.934030 -8.669267 30.763681 16.049971 13.585203 38.855003 -18.353683 -24.067594 -34.832055 47.157233 -13.350531 1.491714 38.608948 -1.553147 -28.827042 25.020938 9.873790 8.649449 16.407979 -26.200923 -50.494603 -9.093406 -5.192204 -6.387098 -42.795524 9.704525 3.918634 -0.472079 -44.276521 -2.704186 -25.333115 40.726650 -17.757290 35.627223 -27.892448 -9.754366 -31.850786 -38.403023 1.477540 -7.195750 -37.031331 2.288015 48.560374 -28.618639 0.897219 -10.007816 -43.897036 7.251685 44.979164 33.521703 -36.069929 -22.948801 38.575905 -76.977866 -41.939613 -41.812126 23.087450 -24.373578 2.191596 34.775756 
0.353497 16.856457 -1.906577 -1.280150 1.729442 0.936999 -19.070431 5.597877 -43.912696 16.479632 8.771104 -13.168083 -16.902994 28.667795 1.247992 -26.929578 30.287276 -13.666537 8.557316 24.594374 -37.758607 -38.358771 21.575949 8.021826 24.206655 -27.437152 -21.732659 1.708502 15.065979 -4.385822 -21.436558 4.097870 21.915692 -7.558699 39.050497 20.664698 -43.700378 42.660270 60.408716 -27.060541 21.940668 41.124720 26.213424 35.012189 40.627489 45.587400 -8.195879 -55.481109 -9.964336 -33.119834 -27.185651 -7.864720 43.489535 -1.705681 56.892950 -23.577517 -3.516051 25.007775 29.179966 -28.600290 7.340991 -8.537207 -40.234306 11.043963 28.783978 -12.655666 
0.354524 16.854355 -1.908769 -1.262170 1.675628 0.897137 -25.976976 18.789856 -11.102062 -3.595076 8.278285 17.887130 -31.086171 15.099786 -20.934570 3.843443 -2.920702 32.936068 32.676964 5.215191 -5.285876 -38.362536 -29.091995 41.966761 36.221758 19.552086 -32.965986 -10.964502 -37.513647 28.130225 8.207739 -30.561278 -10.706713 -17.522519 -17.720130 26.340817 15.663544 1.226099 30.421280 2.334153 22.440735 -23.142701 -46.170341 26.555266 -0.793522 7.816847 -36.702199 -30.875580 -10.925018 -24.144233 -40.175094 -31.191007 -10.928034 -37.935679 41.537264 17.314814 18.601225 27.964115 -16.829782 -10.518521 17.531772 5.698665 10.124265 28.776820 -41.639980 -34.947741 
0.355215 16.853754 -1.910480 -1.258266 1.650171 0.888190 10.516741 40.274026 -34.343005 -32.309019 -40.712174 -25.352955 0.014224 36.446744 -5.340647 23.108948 -35.564005 -23.439168 37.442587 -7.054468 -0.158600 32.417019 -29.630611 27.788940 -7.949591 -25.242705 -40.567462 -16.992820 14.715706 30.051755 -42.895715 42.459127 4.200155 7.222654 -38.634265 -21.248358 3.448886 9.554982 62.297496 36.224053 2.896907 -7.849958 -58.706379 0.734673 -9.519277 2.126980 -28.040678 -1.314755 12.870585 -34.624217 15.776252 10.430682 35.291055 -18.756663 -17.019647 -37.628051 -19.501124 -33.933891 -27.935938 -24.050722 -43.498028 22.868758 18.583548 23.818284 -36.696573 25.039839 
0.354847 16.854204 -1.912898 -1.277922 1.673580 0.855423 -39.011205 43.562912 -45.318821 3.800333 40.546820 -35.958610 -14.143178 19.111758 -40.392509 3.592642 -21.298830 -32.427478 29.725822 36.381052 32.064631 7.541333 -23.327574 16.188302 -0.989649 -33.603724 18.151682 1.824375 -1.071391 44.110032 25.151224 -12.141387 -41.838405 -4.399033 -30.932893 -26.657593 -6.602218 40.486405 16.333148 19.438401 25.015958 36.883812 -13.049581 5.207830 35.287022 -21.992781 37.106359 -49.686201 26.549382 -7.737862 -42.552175 17.705848 -26.393888 44.708417 11.305220 -31.982079 -26.556304 23.269927 -4.114012 -76.515355 24.326160 11.188884 -27.920054 8.417287 -37.626200 -2.949346 
0.355467 16.859909 -1.895105 -1.494062 1.709578 1.028775 -29.767602 -31.145654 -44.078071 -28.029391 -29.572115 30.949895 -18.525556 11.105726 24.465663 9.254335 40.822910 21.474689 10.927250 6.755339 -3.146230 -15.416958 -27.819534 -2.266407 12.160030 -18.421530 -25.711982 43.217766 37.985135 -24.394859 44.805631 -16.134601 -38.369633 41.689073 -28.350815 -12.336495 29.438330 -1.794079 54.053473 -6.042201 8.902203 2.056978 2.743665 6.314327 -28.806023 15.443816 -6.781792 -9.535706 43.819427 -0.325600 -28.972732 1.596135 -35.027574 30.958640 57.121442 -24.149853 35.436887 -37.520540 50.964030 -40.209860 27.892023 -49.827779 24.239827 -31.250185 -26.555269 -43.624221 
0.355698 16.858559 -1.896486 -1.490068 1.658553 0.979278 12.353639 25.526921 -31.482315 33.165741 -24.794013 -35.092500 5.461856 -39.503273 0.322371 -33.399498 -41.035131 27.313381 61.207973 -23.909451 -28.778293 -40.197747 -30.190605 26.824045 -18.350976 -11.011215 -22.152314 -16.670448 22.784619 -11.471745 -11.331918 -36.642291 21.350619 -43.232775 30.257578 44.340747 43.410817 41.433906 58.357074 28.241938 -14.224671 20.959698 13.056432 27.053772 36.416207 20.082481 25.381052 -33.869001 -17.442978 -20.235594 -42.459844 -30.255325 -13.581587 -38.344022 -27.765014 41.689597 -25.160515 -45.889833 3.236953 -25.950235 2.412976 -34.499706 0.167084 35.171464 44.979401 -6.669999 
0.356209 16.859009 -1.897598 -1.467705 1.612175 0.967268 8.008934 -15.742157 27.618032 -2.958482 1.776857 -6.862353 -1.344183 41.604662 -19.458156 -26.849813 3.793671 1.259271 29.841315 4.166199 -30.417030 16.722094 34.861147 -22.497786 28.233441 41.904421 6.679026 -1.613840 -39.541473 -1.970434 -32.147879 -16.402466 -36.930467 -17.473788 -39.583100 39.549562 14.902594 -42.919152 13.420025 13.732594 -26.477248 25.760238 -15.710646 11.724654 -17.027362 5.757319 -38.580064 -52.784747 50.876856 -4.774158 -6.864182 16.836744 39.815624 -25.900674 -7.992134 43.364585 8.750811 -50.991188 5.925639 -57.382462 -38.315484 -7.245471 26.772010 23.742108 30.249430 6.949133 
0.356011 16.859159 -1.899114 -1.498228 1.643050 0.943425 -53.144468 1.382008 11.010459 43.656041 -3.195533 8.385514 8.692920 28.822504 40.303411 17.396830 -37.578766 -30.234893 -8.276155 -25.962125 -8.578310 23.184879 -30.650600 37.107543 -11.156522 -19.305088 -50.066115 24.863927 39.105940 13.421174 7.362077 -10.308646 -12.903326 6.755697 -32.478814 -12.144276 44.017895 40.222199 29.684248 -27.023305 0.785226 25.088216 2.751246 35.263406 20.247030 -5.930361 -47.455158 -44.936453 -25.764515 16.459465 -13.233085 -16.674716 -18.451582 -32.600151 16.865226 -31.635713 -2.272269 23.680901 45.817294 -22.778581 25.577017 -8.853322 -5.069339 27.857945 40.599501 15.128983 
0.357096 16.857958 -1.897973 -1.507732 1.614423 0.943045 -47.639928 -8.726385 -10.585889 5.983677 37.766455 30.827923 -27.878044 -28.034214 8.280964 12.248821 -30.724195 -0.934374 27.110080 8.076010 -33.764784 41.198387 32.520433 -3.145716 39.855406 -22.969372 -34.357077 11.583554 20.867338 -2.825393 -42.209107 -39.853475 31.980108 42.521183 25.875663 -20.999789 -23.559167 24.904197 9.329809 -17.744833 -2.775333 42.664761 18.717367 -34.969672 43.521701 14.109960 -30.588578 -10.702086 28.059252 -38.074044 -13.907940 -18.628197 27.733100 -41.226579 7.942539 -40.149646 -27.017593 22.014861 14.410510 -54.323656 27.547382 22.887647 24.978671 -6.765026 -33.349387 -24.621885 
0.357464 16.858408 -1.900766 -1.489286 1.570883 0.920987 -11.408423 -12.505141 24.917206 -5.547889 -4.421316 7.047396 -12.688493 39.670180 16.753244 -24.576537 -43.611766 -8.883477 36.494422 -4.498525 -3.281442 9.960292 -23.218990 32.624132 8.995351 -31.451766 1.341717 35.827875 0.827186 27.680047 12.033501 35.229018 11.100120 -40.925147 21.733666 11.844790 -12.810086 42.377362 2.100043 32.024953 24.233132 5.787478 18.746331 -16.035838 39.498511 -35.148795 25.807231 -27.276428 48.633823 50.334247 -2.070450 25.349871 -35.817104 -25.687711 30.916998 5.870470 -33.816780 8.568934 -29.225475 -12.812694 20.264176 0.494069 -42.702745 -20.997557 33.942954 38.577151 
0.357580 16.857958 -1.901502 -1.507811 1.578599 0.911483 -2.027841 4.460475 42.156946 -41.915058 24.686664 -31.829745 22.778785 13.845146 -28.776223 -37.039671 17.592060 40.543749 22.043920 -10.260884 19.941278 37.682641 -33.094149 27.746671 14.950752 35.458628 6.605756 33.395380 -37.039551 -1.611685 24.215721 -38.207065 1.111006 -7.141957 -39.853650 40.827087 -20.214662 29.110359 18.125259 -15.736882 -0.897875 9.963664 5.192168 -39.148631 4.371068 -11.115005 14.651293 -28.704679 41.728529 18.626860 3.592419 -1.163107 -0.894879 -27.504887 -1.919178 40.855442 7.578186 -22.116419 13.479568 -26.628760 -27.980207 -29.223016 -15.138649 -11.171161 36.142070 31.784751 
